<?xml version="1.0" encoding="utf-8"?>
<svg xmlns="http://www.w3.org/2000/svg" viewBox="194.013 228.625 110.83 54.358" width="110.83px" height="54.358px"><style>.sigi-wordmark{fill:#333}@media (prefers-color-scheme:dark){.sigi-wordmark{fill:#fff}}</style><g id="object-0" transform="matrix(1, 0, 0, 1, 0, -1.4210854715202004e-14)"><path d="M 215.608 231.11 Q 215.979 230.739 216.35 229.967 Q 216.779 229.053 217.321 229.053 Q 218.093 229.053 218.264 230.31 L 219.264 238.137 L 219.378 239.079 Q 219.378 239.851 218.607 239.851 Q 218.036 239.851 217.778 239.579 Q 217.521 239.308 216.807 237.823 Q 215.579 235.28 212.751 233.252 Q 209.923 231.224 207.067 231.224 Q 204.296 231.224 202.454 232.809 Q 200.611 234.395 200.611 236.794 Q 200.611 238.708 202.325 240.251 Q 204.039 241.793 208.923 243.164 Q 216.579 245.335 219.292 248.534 Q 221.977 251.733 221.977 255.647 Q 221.977 259.646 220.006 262.359 Q 218.036 265.073 215.293 266.63 Q 212.551 268.187 208.266 268.187 Q 205.839 268.187 203.239 267.487 Q 200.64 266.787 197.869 265.387 Q 197.298 266.044 196.898 267.101 Q 196.441 268.272 195.755 268.272 Q 195.041 268.272 194.898 266.73 L 194.07 256.361 Q 194.013 255.675 194.013 255.504 Q 194.013 254.676 194.87 254.676 Q 195.498 254.676 196.069 256.104 Q 197.812 260.388 200.811 263.245 Q 203.782 266.101 207.752 266.101 Q 211.123 266.101 213.194 264.102 Q 215.265 262.102 215.265 259.56 Q 215.265 257.018 213.351 255.275 Q 211.437 253.533 206.467 251.933 Q 201.64 250.362 199.283 248.934 Q 196.926 247.506 195.512 245.007 Q 194.099 242.507 194.099 239.936 Q 194.099 235.452 197.569 232.31 Q 201.04 229.168 207.01 229.168 Q 210.237 229.168 215.608 231.11 Z M 235.6 232.738 Q 235.6 234.423 234.386 235.637 Q 233.172 236.851 231.487 236.851 Q 229.773 236.851 228.573 235.637 Q 227.374 234.423 227.374 232.738 Q 227.374 231.024 228.573 229.824 Q 229.773 228.625 231.487 228.625 Q 233.172 228.625 234.386 229.824 Q 235.6 231.024 235.6 232.738 Z M 236 242.393 Q 236.114 246.392 236.114 256.647 L 236.029 262.788 Q 236.029 264.645 236.643 265.273 Q 237.257 265.901 238.657 266.101 Q 240.256 266.301 240.256 267.015 Q 240.256 267.787 238.999 267.787 Q 238.4 267.787 236.914 267.701 Q 233.772 267.501 230.687 267.501 Q 229.173 267.501 227.602 267.644 Q 226.66 267.758 226.317 267.758 Q 225.06 267.758 225.06 266.987 Q 225.06 266.244 226.717 266.101 Q 228.916 265.901 229.173 264.63 Q 229.43 263.359 229.43 259.474 Q 229.43 254.447 229.273 250.234 Q 229.116 246.021 228.688 245.421 Q 228.259 244.821 226.46 244.621 Q 225.06 244.478 225.06 243.793 Q 225.06 243.107 226.488 242.993 L 227.088 242.936 Z M 264.194 245.021 Q 267.564 242.05 270.078 242.05 Q 271.763 242.05 272.834 243.021 Q 273.905 243.992 273.905 245.249 Q 273.905 246.306 273.163 247.177 Q 272.42 248.049 271.135 248.049 Q 269.335 248.049 268.535 246.106 Q 267.993 244.821 267.478 244.821 Q 266.879 244.821 265.222 246.192 Q 266.736 248.477 266.736 251.105 Q 266.736 253.79 265.193 256.032 Q 263.651 258.275 261.466 259.217 Q 259.28 260.16 255.253 260.531 Q 251.797 260.845 251.054 261.588 Q 250.283 262.359 250.283 263.302 Q 250.283 264.445 251.854 264.787 Q 253.396 265.13 260.394 265.33 Q 271.135 265.673 271.135 272.386 Q 271.135 276.956 267.121 279.969 Q 263.108 282.983 254.996 282.983 Q 248.883 282.983 246.169 281.198 Q 243.456 279.412 243.456 277.013 Q 243.456 274.471 245.669 272.714 Q 247.883 270.957 252.311 269.958 Q 248.94 269.615 247.255 268.486 Q 245.569 267.358 245.569 265.416 Q 245.569 263.359 247.141 261.96 Q 248.712 260.56 251.825 259.817 Q 248.569 258.817 246.926 256.904 Q 245.284 254.99 245.284 252.133 Q 245.284 247.991 248.597 245.178 Q 251.911 242.364 256.767 242.364 Q 259.08 242.364 260.937 243.021 Q 262.794 243.678 264.194 245.021 Z M 252.139 250.991 Q 252.139 254.676 253.382 256.689 Q 254.624 258.703 256.338 258.703 Q 258.109 258.703 258.995 256.975 Q 259.88 255.247 259.88 251.791 Q 259.88 248.134 258.809 246.049 Q 257.738 243.964 256.053 243.964 Q 254.339 243.964 253.239 245.849 Q 252.139 247.734 252.139 250.991 Z M 249.083 276.27 Q 249.083 278.213 251.011 279.669 Q 252.939 281.126 256.453 281.126 Q 260.709 281.126 263.522 279.184 Q 266.336 277.241 266.336 274.585 Q 266.336 272.443 264.079 271.429 Q 261.823 270.415 258.281 270.415 Q 254.082 270.415 251.582 272.086 Q 249.083 273.757 249.083 276.27 Z M 286.185 232.738 Q 286.185 234.423 284.971 235.637 Q 283.757 236.851 282.072 236.851 Q 280.358 236.851 279.158 235.637 Q 277.959 234.423 277.959 232.738 Q 277.959 231.024 279.158 229.824 Q 280.358 228.625 282.072 228.625 Q 283.757 228.625 284.971 229.824 Q 286.185 231.024 286.185 232.738 Z M 286.585 242.393 Q 286.699 246.392 286.699 256.647 L 286.614 262.788 Q 286.614 264.645 287.228 265.273 Q 287.842 265.901 289.242 266.101 Q 290.841 266.301 290.841 267.015 Q 290.841 267.787 289.584 267.787 Q 288.984 267.787 287.499 267.701 Q 284.357 267.501 281.272 267.501 Q 279.758 267.501 278.187 267.644 Q 277.245 267.758 276.902 267.758 Q 275.645 267.758 275.645 266.987 Q 275.645 266.244 277.302 266.101 Q 279.501 265.901 279.758 264.63 Q 280.015 263.359 280.015 259.474 Q 280.015 254.447 279.858 250.234 Q 279.701 246.021 279.273 245.421 Q 278.844 244.821 277.045 244.621 Q 275.645 244.478 275.645 243.793 Q 275.645 243.107 277.073 242.993 L 277.673 242.936 Z" class="sigi-wordmark"/><path d="M 304.843 265.416 Q 304.843 267.672 303.143 270.343 Q 301.443 273.014 298.815 274.685 Q 296.188 276.356 295.273 276.356 Q 294.645 276.356 294.645 275.585 Q 294.645 275.185 295.245 274.785 Q 297.759 273.043 298.844 271.214 Q 299.929 269.386 299.929 268.387 Q 299.929 267.558 298.644 267.244 Q 295.188 266.387 295.188 263.788 Q 295.188 262.188 296.53 261.145 Q 297.873 260.103 299.472 260.103 Q 301.929 260.103 303.386 261.731 Q 304.843 263.359 304.843 265.416 Z" style="fill: rgb(71, 74, 138); text-wrap-mode: nowrap;"/></g></svg>